<svg width="31" height="31" viewBox="0 0 31 31" fill="none" xmlns="http://www.w3.org/2000/svg">
<path d="M12.1092 8.23429C12.1092 10.1064 10.5907 11.6251 8.71842 11.6251C6.84614 11.6251 5.32764 10.1066 5.32764 8.23429C5.32764 6.36201 6.84614 4.84351 8.71842 4.84351C10.5907 4.84351 12.1092 6.36201 12.1092 8.23429Z" fill="#005FA3"/>
<path d="M15.9844 9.35326V7.11543C15.2191 7.11664 14.5301 6.65647 14.237 5.9493C13.944 5.24334 14.1062 4.42959 14.6475 3.88951L13.0636 2.30559C12.7161 2.66281 12.239 2.86384 11.7413 2.86263C11.2363 2.86627 10.7519 2.66888 10.3947 2.31288C10.0363 1.95687 9.83646 1.47371 9.83766 0.96875H7.59984C7.60105 1.47371 7.40124 1.95687 7.0428 2.31288C6.68558 2.66888 6.20121 2.86629 5.69622 2.86263C5.19851 2.86384 4.72142 2.66283 4.37388 2.30559L2.78997 3.88951C3.14718 4.23705 3.34822 4.71417 3.34701 5.21184C3.35064 5.7168 3.15326 6.20118 2.79725 6.55842C2.44125 6.91684 1.95808 7.11667 1.45312 7.11546V8.23437L5.81235 13.611C6.81622 13.6655 7.60089 14.495 7.59968 15.5001H9.83751C9.8363 14.9951 10.0361 14.512 10.3945 14.156C10.7518 13.8 11.2361 13.6026 11.7411 13.6062C12.2388 13.605 12.7159 13.806 13.0635 14.1632L14.6474 12.5793C14.2902 12.2318 14.0891 11.7547 14.0903 11.257C14.0867 10.752 14.2841 10.2677 14.6401 9.91042C14.9961 9.552 15.4793 9.35217 15.9842 9.35338L15.9844 9.35326ZM8.71863 12.5937C6.9555 12.5937 5.36567 11.5317 4.69111 9.90298C4.01661 8.27306 4.38958 6.39843 5.63564 5.1513C6.8829 3.90526 8.75735 3.53226 10.3873 4.20676C12.016 4.88126 13.078 6.47122 13.078 8.23428C13.0756 10.6404 11.1248 12.5913 8.71881 12.5935L8.71863 12.5937Z" fill="#005FA3"/>
<path d="M22.2812 15.5C20.3546 15.5 18.5066 16.2653 17.1432 17.6276C15.781 18.9911 15.0156 20.8389 15.0156 22.7656C15.0156 24.6922 15.781 26.5401 17.1432 27.9035C18.5068 29.2658 20.3545 30.0311 22.2812 30.0311C24.2078 30.0311 26.0557 29.2658 27.4191 27.9035C28.7814 26.54 29.5468 24.6922 29.5468 22.7656L25.6718 16.338C24.6267 15.7871 23.463 15.5001 22.281 15.5001L22.2812 15.5ZM26.1562 21.0217H25.1874V20.5858C25.1874 19.651 24.1364 18.8905 22.8479 18.8905H21.7145C20.4261 18.8905 19.3749 19.6509 19.3749 20.5858C19.3749 21.5207 20.426 22.2811 21.7145 22.2811H22.8479C24.6691 22.2811 26.1562 23.4775 26.1562 24.9452C26.1562 26.4129 24.6692 27.6093 22.8479 27.6093H22.7656V28.0937H21.7968V27.6093H21.7145C19.8932 27.6093 18.4061 26.4129 18.4061 24.9452V24.5093H19.3749V24.9452C19.3749 25.88 20.426 26.6405 21.7144 26.6405H22.8479C24.1363 26.6405 25.1874 25.8801 25.1874 24.9452C25.1874 24.0103 24.1363 23.2499 22.8479 23.2499H21.7144C19.8932 23.2499 18.4061 22.0535 18.4061 20.5858C18.4061 19.1181 19.8932 17.9217 21.7144 17.9217H21.7968V17.4373H22.7655V17.9217H22.8479C24.6691 17.9217 26.1562 19.1181 26.1562 20.5858V21.0217Z" fill="#005FA3"/>
<path d="M20.8281 6.45795L23.7344 9.04208V7.26563H27.6094V11.1406H29.5469V5.32813H23.7344V3.875L20.8281 6.45795Z" fill="#005FA3"/>
<path d="M7.26562 23.7341H3.39062V19.8591H1.45312V25.6716H7.26562V27.1248L10.1719 24.5418L7.26562 21.9577V23.7341Z" fill="#005FA3"/>
<path d="M29.0625 20.3438H30.0312V21.3125H29.0625V20.3438Z" fill="#005FA3"/>
<path d="M29.0625 18.4062H30.0312V19.375H29.0625V18.4062Z" fill="#005FA3"/>
<path d="M29.0625 16.4688H30.0312V17.4375H29.0625V16.4688Z" fill="#005FA3"/>
<path d="M27.125 16.4688H28.0938V17.4375H27.125V16.4688Z" fill="#005FA3"/>
<path d="M29.0625 14.5312H30.0312V15.5H29.0625V14.5312Z" fill="#005FA3"/>
<path d="M27.125 14.5312H28.0938V15.5H27.125V14.5312Z" fill="#005FA3"/>
<path d="M29.0625 12.5938H30.0312V13.5625H29.0625V12.5938Z" fill="#005FA3"/>
<path d="M0.96875 17.4375H1.9375V18.4062H0.96875V17.4375Z" fill="#005FA3"/>
<path d="M0.96875 15.5H1.9375V16.4688H0.96875V15.5Z" fill="#005FA3"/>
<path d="M0.96875 13.5625H1.9375V14.5312H0.96875V13.5625Z" fill="#005FA3"/>
<path d="M0.96875 11.625H1.9375V12.5938H0.96875V11.625Z" fill="#005FA3"/>
<path d="M2.90625 17.4375H3.875V18.4062H2.90625V17.4375Z" fill="#005FA3"/>
<path d="M2.90625 15.5H3.875V16.4688H2.90625V15.5Z" fill="#005FA3"/>
<path d="M2.90625 13.5625H3.875V14.5312H2.90625V13.5625Z" fill="#005FA3"/>
<path d="M0.96875 9.6875H1.9375V10.6562H0.96875V9.6875Z" fill="#005FA3"/>
<path d="M27.125 12.5938H28.0938V13.5625H27.125V12.5938Z" fill="#005FA3"/>
</svg>
