<svg width="31" height="31" viewBox="0 0 31 31" fill="none" xmlns="http://www.w3.org/2000/svg">
<g clip-path="url(#clip0)">
<path fill-rule="evenodd" clip-rule="evenodd" d="M12.3504 0.579886C13.0891 0.579886 13.6873 1.17809 13.6873 1.91676V4.59051C13.6873 5.32918 13.0891 5.92739 12.3504 5.92739C11.6117 5.92739 11.0135 5.32918 11.0135 4.59051V1.91676C11.0135 1.17809 11.6117 0.579886 12.3504 0.579886ZM13.0891 18.9474C14.3908 20.8825 14.2152 23.5574 12.4909 25.2807L9.11249 28.6228L9.64045 29.1508L8.09166 30.6996L4.43211 27.04L4.15117 27.3209C4.29164 27.7436 4.18629 28.2715 3.83392 28.6227C3.37617 29.0804 2.56729 29.0804 2.07442 28.6227C1.61667 28.1299 1.61667 27.3209 2.07442 26.8632C2.4268 26.5108 2.95355 26.4054 3.37617 26.5459L3.65711 26.265L-0.00244141 22.6054L1.54635 21.0567L2.07431 21.5495L5.41642 18.2074C7.1408 16.483 9.8147 16.3074 11.7497 17.6092L12.2075 17.1163C13.1229 16.2372 14.4598 17.5741 13.5795 18.4883L13.0866 18.9461L13.0891 18.9474ZM4.18619 2.83111H10.2033V4.5906C10.2033 5.75189 11.189 6.70127 12.3503 6.70127C13.5116 6.70127 14.461 5.75069 14.461 4.5906V2.83111H20.7239V4.27332C20.7239 5.46973 21.6745 6.42032 22.8345 6.42032C24.031 6.42032 24.9815 5.46973 24.9815 4.27332V2.83111H30.9986V27.0049H12.0328L13.1239 25.9139C13.2292 25.7734 13.3346 25.668 13.4411 25.5615H29.5574V9.6219H5.63038V16.8706C5.34945 17.0813 5.0673 17.3284 4.78635 17.5742L4.18814 18.1724V2.83111H4.18619ZM24.2429 14.9357H26.9166V12.2619H24.2429V14.9357ZM16.2554 14.9357H18.9292V12.2619H16.2554V14.9357ZM22.9058 14.9357H20.2672V12.2619H22.9058V14.9357ZM24.2427 20.2494H26.9165V22.9231H24.2427V20.2494ZM24.2427 16.2727H26.9165V18.9465H24.2427V16.2727ZM16.2553 20.2494H18.929V22.9231H16.2553V20.2494ZM16.2553 16.2727H18.929V18.9465H16.2553V16.2727ZM22.9057 20.2494H20.2671V22.9231H22.9057V20.2494ZM22.9057 16.2727H20.2671V18.9465H22.9057V16.2727ZM22.8355 0.298096C22.1319 0.298096 21.5337 0.896303 21.5337 1.63497V4.2736C21.5337 5.01227 22.1319 5.61047 22.8355 5.61047C23.5741 5.61047 24.1723 5.01227 24.1723 4.2736V1.63497C24.1723 0.896303 23.5741 0.298096 22.8355 0.298096Z" fill="#005FA3"/>
</g>
<defs>
<clipPath id="clip0">
<rect width="31" height="31" fill="white"/>
</clipPath>
</defs>
</svg>
