<svg width="31" height="31" viewBox="0 0 31 31" fill="none" xmlns="http://www.w3.org/2000/svg">
<g clip-path="url(#clip0)">
<path fill-rule="evenodd" clip-rule="evenodd" d="M12.3504 0.58013C13.0891 0.58013 13.6873 1.17834 13.6873 1.917V4.59075C13.6873 5.32942 13.0891 5.92763 12.3504 5.92763C11.6117 5.92763 11.0135 5.32942 11.0135 4.59075V1.917C11.0135 1.17834 11.6117 0.58013 12.3504 0.58013ZM13.0891 18.9476C14.3908 20.8827 14.2152 23.5576 12.4909 25.2809L9.11249 28.623L9.64045 29.151L8.09166 30.6998L4.43211 27.0402L4.15117 27.3212C4.29164 27.7438 4.18629 28.2718 3.83392 28.6229C3.37617 29.0807 2.56729 29.0807 2.07442 28.6229C1.61667 28.1301 1.61667 27.3212 2.07442 26.8634C2.4268 26.5111 2.95355 26.4057 3.37617 26.5462L3.65711 26.2652L-0.00244141 22.6057L1.54635 21.0569L2.07431 21.5497L5.41642 18.2076C7.1408 16.4833 9.8147 16.3077 11.7497 17.6094L12.2075 17.1166C13.1229 16.2375 14.4598 17.5743 13.5795 18.4886L13.0866 18.9463L13.0891 18.9476ZM4.18619 2.83135H10.2033V4.59085C10.2033 5.75214 11.189 6.70151 12.3503 6.70151C13.5116 6.70151 14.461 5.75093 14.461 4.59085V2.83135H20.7239V4.27356C20.7239 5.46998 21.6745 6.42056 22.8345 6.42056C24.031 6.42056 24.9815 5.46998 24.9815 4.27356V2.83135H30.9986V27.0051H12.0328L13.1239 25.9141C13.2292 25.7736 13.3346 25.6683 13.4411 25.5617H29.5574V9.62215H5.63038V16.8709C5.34945 17.0816 5.0673 17.3286 4.78635 17.5744L4.18814 18.1726V2.83135H4.18619ZM24.2429 14.9359H26.9166V12.2622H24.2429V14.9359ZM16.2554 14.9359H18.9292V12.2622H16.2554V14.9359ZM22.9058 14.9359H20.2672V12.2622H22.9058V14.9359ZM24.2427 20.2496H26.9165V22.9234H24.2427V20.2496ZM24.2427 16.2729H26.9165V18.9467H24.2427V16.2729ZM16.2553 20.2496H18.929V22.9234H16.2553V20.2496ZM16.2553 16.2729H18.929V18.9467H16.2553V16.2729ZM22.9057 20.2496H20.2671V22.9234H22.9057V20.2496ZM22.9057 16.2729H20.2671V18.9467H22.9057V16.2729ZM22.8355 0.29834C22.1319 0.29834 21.5337 0.896547 21.5337 1.63521V4.27384C21.5337 5.01251 22.1319 5.61072 22.8355 5.61072C23.5741 5.61072 24.1723 5.01251 24.1723 4.27384V1.63521C24.1723 0.896547 23.5741 0.29834 22.8355 0.29834Z" fill="#005FA3"/>
</g>
<defs>
<clipPath id="clip0">
<rect width="31" height="31" fill="white"/>
</clipPath>
</defs>
</svg>
