<svg width="34" height="21" viewBox="0 0 34 21" fill="none" xmlns="http://www.w3.org/2000/svg">
<path fill-rule="evenodd" clip-rule="evenodd" d="M17.0004 0C22.0163 0 26.0824 4.11123 26.0824 9.18272C26.0824 14.2542 22.0163 18.3654 17.0004 18.3654C11.9845 18.3654 7.91836 14.2542 7.91836 9.18272C7.91836 4.11123 11.9845 0 17.0004 0ZM26.1902 4.99047L26.1904 4.99047C26.3012 5.23944 26.4012 5.49462 26.4935 5.75289C30.2636 5.96801 33.2549 9.12677 33.2549 12.9931C33.2549 16.9983 30.043 20.2458 26.0818 20.2458C24.2439 20.2458 22.5694 19.5473 21.3004 18.3999C21.0552 18.5168 20.8054 18.6244 20.551 18.721C21.9788 20.1304 23.9295 20.9988 26.082 20.9988C30.4551 20.9988 34 17.416 34 12.9946C34 8.61059 30.5138 5.04828 26.1904 4.99047L26.1897 4.98896L26.1902 4.99047ZM22.0423 18.0082C23.1433 18.9171 24.5495 19.4612 26.082 19.4612C29.6146 19.4612 32.4779 16.5661 32.4779 12.9945C32.4779 9.6488 29.9646 6.89566 26.7405 6.562C26.9594 7.39922 27.0781 8.27694 27.0781 9.18272C27.0781 12.954 25.0538 16.245 22.0423 18.0082ZM13.449 18.7223L13.4477 18.7235C13.1936 18.6269 12.9441 18.5194 12.6992 18.4026C11.4303 19.5501 9.75418 20.2485 7.91776 20.2485C3.95648 20.2485 0.744654 17.001 0.744654 12.9959C0.744654 9.13092 3.73602 5.97079 7.50605 5.75564C7.59702 5.49526 7.69879 5.24115 7.80981 4.99171C3.48783 5.05117 0 8.61203 0 12.9959C0 17.4158 3.5451 21 7.91796 21C10.07 21 12.02 20.1321 13.4477 18.7235L13.4485 18.7238L13.449 18.7223ZM7.25955 6.5618C4.0369 6.89544 1.52209 9.64868 1.52209 12.9943C1.52209 16.566 4.38545 19.461 7.91796 19.461C9.45064 19.461 10.8569 18.9154 11.9577 18.008C8.94629 16.2448 6.92166 12.9537 6.92166 9.18252C6.92166 8.27674 7.03905 7.39742 7.25955 6.5618ZM22.1875 13.7544V3.75439H21.7984L17.1875 8.3653L12.5766 3.75439H12.1875V6.87441L14.6636 9.35055V9.34866L17.1875 11.8754L19.7114 9.34866V13.7544H22.1875ZM14.6636 10.4818V13.7542H12.1875V8.0057L14.6636 10.4818Z" fill="#005FA3"/>
</svg>
